<svg xmlns="http://www.w3.org/2000/svg" version="1.1" viewBox="-5.0 -10.0 110.0 135.0">
 <path d="m47.523 10.652c1.5352-0.87109 3.418-0.87109 4.9531 0l31 17.535c1.5586 0.88281 2.5234 2.5234 2.5234 4.3086v35.008c0 1.7852-0.96484 3.4258-2.5234 4.3086l-31 17.535c-1.5352 0.87109-3.418 0.87109-4.9531 0l-31-17.535c-1.5586-0.88281-2.5234-2.5234-2.5234-4.3086v-35.008c0-1.7852 0.96484-3.4258 2.5234-4.3086zm0.10156 12.492c1.4805-0.80078 3.2695-0.80078 4.75 0l21 11.34c1.6172 0.875 2.625 2.5625 2.625 4.4023v22.227c0 1.8398-1.0078 3.5273-2.625 4.3984l-21 11.34c-1.4805 0.80078-3.2695 0.80078-4.75 0l-21-11.34c-1.6172-0.87109-2.625-2.5586-2.625-4.3984v-22.227c0-1.8398 1.0078-3.5273 2.625-4.4023zm3.8008 1.7617c-0.89062-0.48047-1.9609-0.48047-2.8516 0l-21 11.34c-0.96875 0.52344-1.5742 1.5391-1.5742 2.6406v22.227c0 1.1016 0.60547 2.1172 1.5742 2.6406l21 11.34c0.89062 0.48047 1.9609 0.48047 2.8516 0l21-11.34c0.96875-0.52344 1.5742-1.5391 1.5742-2.6406v-22.227c0-1.1016-0.60547-2.1172-1.5742-2.6406zm-3.7656 7.1992c1.4648-0.77344 3.2148-0.77344 4.6797 0l13 6.8828c1.6367 0.86719 2.6602 2.5664 2.6602 4.4219v13.18c0 1.8555-1.0234 3.5547-2.6602 4.4219l-13 6.8828c-1.4648 0.77344-3.2148 0.77344-4.6797 0l-13-6.8828c-1.6367-0.86719-2.6602-2.5664-2.6602-4.4219v-13.18c0-1.8555 1.0234-3.5547 2.6602-4.4219zm3.7422 1.7695c-0.875-0.46484-1.9297-0.46484-2.8047 0l-13 6.8828c-0.98438 0.51953-1.5977 1.5391-1.5977 2.6523v13.18c0 1.1133 0.61328 2.1328 1.5977 2.6523l13 6.8828c0.875 0.46484 1.9297 0.46484 2.8047 0l13-6.8828c0.98438-0.51953 1.5977-1.5391 1.5977-2.6523v-13.18c0-1.1133-0.61328-2.1328-1.5977-2.6523zm-7.4023 11.125c0-3.3125 2.6875-6 6-6s6 2.6875 6 6c0 1.7773-0.77344 3.375-2 4.4727v8.5273c0 2.2109-1.7891 4-4 4s-4-1.7891-4-4v-8.5273c-1.2266-1.0977-2-2.6953-2-4.4727z" fill-rule="evenodd"/>
</svg>