<?xml version="1.0" encoding="UTF-8"?>
<svg version="1.1" xmlns="http://www.w3.org/2000/svg" width="260" height="260">
<path d="M0 0 C0.8194491 -0.01505396 1.6388982 -0.03010792 2.48317909 -0.04561806 C6.81990369 -0.12269842 11.15613204 -0.1750609 15.4934082 -0.20776367 C19.04602575 -0.23872737 22.59302625 -0.31521943 26.14379883 -0.43334961 C58.76200023 -1.49408516 58.76200023 -1.49408516 67.17451477 5.53105164 C69.67656722 8.12078188 71.87014109 10.84003372 73.98623657 13.7515564 C76.91721803 17.58061919 80.46251056 20.79584585 83.92578125 24.13671875 C85.29937296 25.51053398 86.66918452 26.88813931 88.03515625 28.26953125 C89.04932617 29.29288574 89.04932617 29.29288574 90.08398438 30.33691406 C90.76396484 31.02366211 91.44394531 31.71041016 92.14453125 32.41796875 C94.90192233 35.20224247 97.66284201 37.98295184 100.42578125 40.76171875 C101.03425903 41.37849487 101.64273682 41.995271 102.26965332 42.6307373 C105.9764501 46.3583431 109.80648374 49.87894213 113.79774475 53.30070496 C116.85626567 55.97910614 119.71851674 58.84676495 122.58203125 61.73046875 C123.15759766 62.30216797 123.73316406 62.87386719 124.32617188 63.46289062 C128.44534761 67.59176996 129.76694679 69.30017085 129.78497314 75.06445312 C129.79068329 76.15500504 129.79639343 77.24555695 129.80227661 78.36915588 C129.8039534 80.1722245 129.8039534 80.1722245 129.80566406 82.01171875 C129.81062897 83.27366562 129.81559387 84.53561249 129.82070923 85.83580017 C129.8338455 89.30525026 129.84028159 92.77468098 129.84471989 96.24415207 C129.84765111 98.41416433 129.85175621 100.58417131 129.85622406 102.75418091 C129.86990767 109.55013155 129.87956778 116.34607011 129.88342595 123.14203358 C129.8878967 130.97353993 129.90539498 138.80487088 129.93442655 146.63632393 C129.95610496 152.69592199 129.96613365 158.75547095 129.96746707 164.81510735 C129.96851152 168.43051773 129.97434087 172.04576344 129.99228668 175.66113281 C130.01196134 179.70388246 130.00745399 183.74627009 130.00097656 187.7890625 C130.01019135 188.9749144 130.01940613 190.1607663 130.02890015 191.3825531 C129.97122172 202.91078141 127.70619935 211.48472076 119.64453125 219.91796875 C111.11775186 227.87166521 102.15534584 229.36976263 90.78173828 229.32202148 C89.62766479 229.32888474 88.47359131 229.33574799 87.2845459 229.34281921 C83.49035141 229.36103826 79.69657237 229.35725626 75.90234375 229.3515625 C73.92194644 229.35497194 71.94154894 229.35839015 69.96115386 229.36291558 C63.74082158 229.37692153 57.52062675 229.37543297 51.30029297 229.36401367 C44.91031473 229.35254123 38.52075664 229.36660198 32.13083375 229.39341015 C26.61966813 229.415655 21.10863356 229.42218474 15.5974263 229.41633373 C12.31682827 229.41298319 9.03655649 229.41698979 5.75598526 229.43258476 C2.0923815 229.44754722 -1.57031047 229.43677744 -5.23388672 229.41967773 C-6.3022879 229.4293457 -7.37068909 229.43901367 -8.47146606 229.44897461 C-19.59784283 229.3408338 -28.15771328 226.16195097 -36.1875 218.42578125 C-42.57289688 211.03943027 -44.47314174 203.4281005 -44.49591064 193.85420227 C-44.49888177 193.1546148 -44.50185289 192.45502733 -44.50491405 191.73424023 C-44.51356745 189.39613816 -44.51510645 187.0580875 -44.51660156 184.7199707 C-44.52123216 183.04089754 -44.52625715 181.36182542 -44.53164673 179.68275452 C-44.54475048 175.12467368 -44.55121187 170.56660756 -44.55565739 166.00851083 C-44.55859172 163.15822608 -44.56269723 160.30794532 -44.56716156 157.45766258 C-44.58083189 148.53238548 -44.59050051 139.60711754 -44.59436345 130.6818307 C-44.59884154 120.39286075 -44.61637981 110.10402381 -44.64536405 99.81509429 C-44.66701141 91.85311689 -44.67706938 83.89117682 -44.67840457 75.92917031 C-44.67945052 71.17810872 -44.68531335 66.42717225 -44.70322418 61.67614174 C-44.71975749 57.20357057 -44.72183494 52.73121787 -44.71308517 48.25862694 C-44.71231758 46.62284635 -44.71662071 44.98705377 -44.72654343 43.3513031 C-44.80522269 29.56561301 -43.40013976 19.62798849 -33.796875 9.23046875 C-24.48012729 0.29354049 -12.15210342 0.18352944 0 0 Z M-27.79296875 15.8828125 C-28.30859375 16.53378906 -28.82421875 17.18476562 -29.35546875 17.85546875 C-29.89171875 18.50386719 -30.42796875 19.15226562 -30.98046875 19.8203125 C-34.08660054 24.55892832 -34.60818302 28.5161976 -34.62289429 34.14704895 C-34.6274254 34.86438176 -34.63195651 35.58171458 -34.63662493 36.32078475 C-34.64926169 38.71888661 -34.64764905 41.11676115 -34.64599609 43.51489258 C-34.65198183 45.23662101 -34.65878748 46.95834675 -34.66635132 48.68006897 C-34.68401463 53.35372907 -34.68870686 58.02731592 -34.68998289 62.70100617 C-34.69140494 65.62230518 -34.69567557 68.5435856 -34.70097733 71.46487999 C-34.71947917 81.66027381 -34.7276478 91.85561534 -34.72607422 102.05102539 C-34.72487299 111.54807997 -34.74597121 121.04490721 -34.77756155 130.54190427 C-34.80373205 138.70088449 -34.81444118 146.8597905 -34.8131634 155.01881236 C-34.81265397 159.88944693 -34.81832685 164.75987949 -34.8395195 169.63047218 C-34.85891474 174.21308162 -34.85901759 178.79529662 -34.84448624 183.37792015 C-34.84239859 185.05646721 -34.84709645 186.73503904 -34.85920715 188.4135437 C-34.96182585 201.55100368 -34.96182585 201.55100368 -28.71484375 212.90625 C-28.18375 213.34324219 -27.65265625 213.78023437 -27.10546875 214.23046875 C-26.5846875 214.68035156 -26.06390625 215.13023437 -25.52734375 215.59375 C-18.43793578 219.91624874 -12.03233559 220.35333534 -3.92578125 220.30615234 C-2.80604919 220.3114093 -1.68631714 220.31666626 -0.53265381 220.32208252 C3.15155172 220.33523612 6.83532167 220.3265605 10.51953125 220.31640625 C13.08968183 220.31842831 15.65983185 220.32134085 18.22998047 220.32510376 C23.60976165 220.32952085 28.98938053 220.32340411 34.36914062 220.30908203 C40.57221597 220.2927579 46.7749954 220.29804734 52.97806358 220.31456125 C58.96671987 220.32986091 64.95523242 220.32818397 70.94390869 220.31941605 C73.48276817 220.31741861 76.02163522 220.31985724 78.56048584 220.32685471 C82.11214029 220.33449599 85.66323113 220.32282658 89.21484375 220.30615234 C90.7798764 220.31526138 90.7798764 220.31526138 92.37652588 220.32455444 C99.79278255 220.26023969 106.56112469 219.26972342 112.39453125 214.23046875 C112.925625 213.79347656 113.45671875 213.35648438 114.00390625 212.90625 C119.92333745 205.73246314 120.20902335 199.22644542 120.09863281 190.25976562 C120.09921692 189.01014038 120.09980103 187.76051514 120.10040283 186.47302246 C120.09810373 183.06825924 120.07813093 179.66448225 120.050107 176.25989342 C120.02499594 172.69384072 120.02274375 169.12777298 120.01800537 165.56164551 C120.00560393 158.81858639 119.97282111 152.07578862 119.93260741 145.33284426 C119.88780109 137.652068 119.86588047 129.97127886 119.84582567 122.29040432 C119.8040856 106.49944144 119.73378923 90.70873888 119.64453125 74.91796875 C119.00496994 74.8118779 118.36540863 74.70578705 117.70646667 74.59648132 C111.00474106 73.48364454 104.30438218 72.36283722 97.60473633 71.23754883 C95.1096304 70.81951807 92.61419147 70.40346956 90.1184082 69.98950195 C86.515528 69.39154041 82.91393547 68.78628238 79.3125 68.1796875 C78.20996384 67.99830734 77.10742767 67.81692719 75.97148132 67.63005066 C53.06283998 63.74175151 53.06283998 63.74175151 46.76953125 55.54296875 C41.36394229 45.87629663 44.95746158 34.76072877 47.64453125 24.79296875 C48.45027373 21.94567826 49.25777428 19.09979674 50.09375 16.26123047 C50.79707338 13.67017549 50.79707338 13.67017549 50.64453125 9.91796875 C42.2119638 9.82488217 33.77961458 9.75400952 25.34665871 9.71072006 C21.42997586 9.68993283 17.5136471 9.66178003 13.59716797 9.61621094 C9.81051579 9.5724331 6.02420204 9.54876515 2.23731613 9.53845978 C0.79974421 9.53112516 -0.63781126 9.51680376 -2.07523727 9.49504852 C-11.52045448 9.35791056 -20.14952597 9.72151167 -27.79296875 15.8828125 Z M59.64453125 14.91796875 C55.59838391 24.62872236 50.42838014 38.24384643 52.64453125 48.91796875 C54.62585295 52.80985065 55.82475703 54.28348209 59.91674805 55.71020508 C68.60844839 57.81941995 77.36705023 59.34581352 86.19311523 60.76269531 C88.73514643 61.17250125 91.27473767 61.5956363 93.81445312 62.01953125 C95.43606796 62.28335212 97.05780846 62.546402 98.6796875 62.80859375 C99.81398949 62.99908295 99.81398949 62.99908295 100.97120667 63.19342041 C104.30514762 63.71843089 106.3930196 64.00180597 109.64453125 62.91796875 C104.1649189 57.391839 98.6797845 51.87125471 93.18770504 46.3575182 C90.63717238 43.79658673 88.08851779 41.23384489 85.54418945 38.66674805 C83.08474397 36.18543418 80.62032198 33.70916157 78.15249825 31.23618126 C76.7627839 29.84102024 75.37815415 28.44080036 73.99363708 27.04048157 C69.45264817 22.49869535 65.01979505 18.44278438 59.64453125 14.91796875 Z " fill="#EBEBEB" transform="translate(87.35546875,15.08203125)"/>
<path d="M0 0 C0.89161835 -0.00845947 1.78323669 -0.01691895 2.70187378 -0.02563477 C3.67238678 -0.01956207 4.64289978 -0.01348938 5.64282227 -0.00723267 C6.67085968 -0.01248962 7.69889709 -0.01774658 8.75808716 -0.02316284 C12.15862185 -0.03637403 15.558689 -0.02762053 18.95922852 -0.01748657 C21.32047618 -0.01950698 23.68172323 -0.02241814 26.04296875 -0.02618408 C30.99265481 -0.03060896 35.94217851 -0.02417093 40.8918457 -0.01016235 C47.24082869 0.00692942 53.58943124 -0.00291086 59.93840027 -0.02087975 C64.81452305 -0.03171303 69.69055543 -0.02827329 74.56668091 -0.02049637 C76.90788823 -0.01849311 79.24910373 -0.02095802 81.59030151 -0.02793503 C84.86063422 -0.03554179 88.13034821 -0.02395556 91.40063477 -0.00723267 C92.85640427 -0.01634171 92.85640427 -0.01634171 94.34158325 -0.02563477 C95.67901077 -0.01294556 95.67901077 -0.01294556 97.04345703 0 C98.20265404 0.00169662 98.20265404 0.00169662 99.38526917 0.00342751 C102.11752017 0.4862304 103.5102271 1.49734305 105.52172852 3.38095093 C105.95922852 5.94345093 105.95922852 5.94345093 105.52172852 8.38095093 C102.37749141 10.477109 101.66183025 10.63149937 98.08105469 10.63491821 C96.71827896 10.64337769 96.71827896 10.64337769 95.32797241 10.65200806 C94.33359161 10.64795959 93.33921082 10.64391113 92.31469727 10.63973999 C90.74119003 10.64499695 90.74119003 10.64499695 89.13589478 10.65036011 C85.6602725 10.65917947 82.18485294 10.65332746 78.70922852 10.64657593 C76.29931601 10.64792252 73.88940376 10.649863 71.47949219 10.65237427 C66.42551083 10.65532581 61.37160011 10.65102685 56.31762695 10.64169312 C49.83070758 10.63029863 43.3439537 10.63685793 36.85704041 10.64883804 C31.879748 10.65605578 26.90249499 10.6537691 21.92520142 10.64858246 C19.53292827 10.64724573 17.14065158 10.64889449 14.74838257 10.65354156 C11.40841151 10.65860531 8.06871064 10.65089849 4.72875977 10.63973999 C3.23718857 10.64581268 3.23718857 10.64581268 1.71548462 10.65200806 C0.80696747 10.64636841 -0.10154968 10.64072876 -1.03759766 10.63491821 C-2.22224861 10.63378714 -2.22224861 10.63378714 -3.43083191 10.63263321 C-5.47827148 10.38095093 -5.47827148 10.38095093 -8.47827148 8.38095093 C-8.91577148 5.94345093 -8.91577148 5.94345093 -8.47827148 3.38095093 C-5.68860595 0.76865549 -3.78862147 0.00554507 0 0 Z " fill="#E5E5E5" transform="translate(81.478271484375,177.61904907226563)"/>
<path d="M0 0 C1.23750708 0.00138269 1.23750708 0.00138269 2.50001431 0.00279331 C3.44377422 0.00141865 4.38753414 0.00004398 5.35989285 -0.00137234 C6.40358028 0.00222294 7.44726772 0.00581821 8.52258205 0.00952244 C9.61512798 0.00937641 10.70767391 0.00923038 11.83332729 0.00907993 C15.46405899 0.00977961 19.09474012 0.01757454 22.72546291 0.02539158 C25.2351011 0.02725557 27.74473964 0.02867956 30.25437832 0.0296793 C36.1971526 0.03311435 42.1399105 0.0410051 48.08267635 0.05102879 C55.50982591 0.0632853 62.93697771 0.06866991 70.36413479 0.0742197 C83.6187014 0.08495972 96.87325287 0.101847 110.12780666 0.12304783 C110.62280666 3.58804783 110.62280666 3.58804783 111.12780666 7.12304783 C107.98356955 9.2192059 107.2679084 9.37359627 103.68713284 9.37701511 C102.32435711 9.38547459 102.32435711 9.38547459 100.93405056 9.39410496 C99.93966976 9.3900565 98.94528896 9.38600803 97.92077541 9.38183689 C96.34726818 9.38709385 96.34726818 9.38709385 94.74197292 9.39245701 C91.26635065 9.40127637 87.79093109 9.39542436 84.31530666 9.38867283 C81.90539416 9.39001942 79.49548191 9.3919599 77.08557034 9.39447117 C72.03158898 9.39742271 66.97767826 9.39312376 61.9237051 9.38379002 C55.43678573 9.37239553 48.95003185 9.37895483 42.46311855 9.39093494 C37.48582614 9.39815268 32.50857314 9.395866 27.53127956 9.39067936 C25.13900642 9.38934263 22.74672972 9.3909914 20.35446072 9.39563847 C17.01448966 9.40070221 13.67478878 9.39299539 10.33483791 9.38183689 C8.84326672 9.38790958 8.84326672 9.38790958 7.32156277 9.39410496 C6.41304562 9.38846531 5.50452847 9.38282566 4.56848049 9.37701511 C3.38382954 9.37588404 3.38382954 9.37588404 2.17524624 9.37473011 C0.12780666 9.12304783 0.12780666 9.12304783 -2.87219334 7.12304783 C-3.12219334 4.06054783 -3.12219334 4.06054783 -2.87219334 1.12304783 C-1.87219334 0.12304783 -1.87219334 0.12304783 0 0 Z " fill="#EDEDED" transform="translate(75.87219333648682,137.87695217132568)"/>
<path d="M0 0 C0.92541595 -0.00563965 1.85083191 -0.0112793 2.80429077 -0.01708984 C3.82253937 -0.01304138 4.84078796 -0.00899292 5.88989258 -0.00482178 C6.95986481 -0.00832642 8.02983704 -0.01183105 9.13223267 -0.01544189 C12.68302829 -0.0242729 16.23362604 -0.01840516 19.78442383 -0.01165771 C22.24300169 -0.01300397 24.7015793 -0.01494417 27.16015625 -0.01745605 C32.31846648 -0.02040918 37.47670756 -0.01610359 42.63500977 -0.0067749 C49.2599386 0.00461967 55.88470541 -0.00193879 62.5096283 -0.01391983 C67.58810658 -0.02113332 72.66654621 -0.01885284 77.74502563 -0.01366425 C80.18836486 -0.01232634 82.63170755 -0.01398037 85.07504272 -0.01862335 C88.4847753 -0.02368017 91.89424237 -0.01599011 95.30395508 -0.00482178 C96.83132797 -0.01089447 96.83132797 -0.01089447 98.38955688 -0.01708984 C99.31497284 -0.0114502 100.24038879 -0.00581055 101.19384766 0 C102.00058426 0.00075405 102.80732086 0.0015081 103.63850403 0.002285 C105.59692383 0.25396729 105.59692383 0.25396729 107.59692383 2.25396729 C107.84692383 4.75396729 107.84692383 4.75396729 107.59692383 7.25396729 C105.1555331 9.69535802 104.54083721 9.50480616 101.19384766 9.50793457 C100.2684317 9.51357422 99.34301575 9.51921387 98.38955688 9.52502441 C97.37130829 9.52097595 96.35305969 9.51692749 95.30395508 9.51275635 C94.23398285 9.51626099 93.16401062 9.51976562 92.06161499 9.52337646 C88.51081937 9.53220747 84.96022161 9.52633973 81.40942383 9.51959229 C78.95084596 9.52093854 76.49226836 9.52287874 74.03369141 9.52539062 C68.87538118 9.52834375 63.7171401 9.52403816 58.55883789 9.51470947 C51.93390905 9.5033149 45.30914225 9.50987336 38.68421936 9.5218544 C33.60574107 9.52906789 28.52730145 9.52678741 23.44882202 9.52159882 C21.0054828 9.52026091 18.56214011 9.52191494 16.11880493 9.52655792 C12.70907235 9.53161474 9.29960529 9.52392469 5.88989258 9.51275635 C4.36251968 9.51882904 4.36251968 9.51882904 2.80429077 9.52502441 C1.87887482 9.51938477 0.95345886 9.51374512 0 9.50793457 C-0.8067366 9.50718052 -1.61347321 9.50642647 -2.44465637 9.50564957 C-4.40307617 9.25396729 -4.40307617 9.25396729 -6.40307617 7.25396729 C-6.65307617 4.75396729 -6.65307617 4.75396729 -6.40307617 2.25396729 C-3.96168544 -0.18742345 -3.34698955 0.00312841 0 0 Z " fill="#ECECEC" transform="translate(79.403076171875,198.74603271484375)"/>
<path d="M0 0 C0.92541595 -0.00563965 1.85083191 -0.0112793 2.80429077 -0.01708984 C3.82253937 -0.01304138 4.84078796 -0.00899292 5.88989258 -0.00482178 C6.95986481 -0.00832642 8.02983704 -0.01183105 9.13223267 -0.01544189 C12.68302829 -0.0242729 16.23362604 -0.01840516 19.78442383 -0.01165771 C22.24300169 -0.01300397 24.7015793 -0.01494417 27.16015625 -0.01745605 C32.31846648 -0.02040918 37.47670756 -0.01610359 42.63500977 -0.0067749 C49.2599386 0.00461967 55.88470541 -0.00193879 62.5096283 -0.01391983 C67.58810658 -0.02113332 72.66654621 -0.01885284 77.74502563 -0.01366425 C80.18836486 -0.01232634 82.63170755 -0.01398037 85.07504272 -0.01862335 C88.4847753 -0.02368017 91.89424237 -0.01599011 95.30395508 -0.00482178 C96.83132797 -0.01089447 96.83132797 -0.01089447 98.38955688 -0.01708984 C99.31497284 -0.0114502 100.24038879 -0.00581055 101.19384766 0 C102.00058426 0.00075405 102.80732086 0.0015081 103.63850403 0.002285 C105.59692383 0.25396729 105.59692383 0.25396729 107.59692383 2.25396729 C107.84692383 4.75396729 107.84692383 4.75396729 107.59692383 7.25396729 C105.1555331 9.69535802 104.54083721 9.50480616 101.19384766 9.50793457 C100.2684317 9.51357422 99.34301575 9.51921387 98.38955688 9.52502441 C97.37130829 9.52097595 96.35305969 9.51692749 95.30395508 9.51275635 C94.23398285 9.51626099 93.16401062 9.51976562 92.06161499 9.52337646 C88.51081937 9.53220747 84.96022161 9.52633973 81.40942383 9.51959229 C78.95084596 9.52093854 76.49226836 9.52287874 74.03369141 9.52539062 C68.87538118 9.52834375 63.7171401 9.52403816 58.55883789 9.51470947 C51.93390905 9.5033149 45.30914225 9.50987336 38.68421936 9.5218544 C33.60574107 9.52906789 28.52730145 9.52678741 23.44882202 9.52159882 C21.0054828 9.52026091 18.56214011 9.52191494 16.11880493 9.52655792 C12.70907235 9.53161474 9.29960529 9.52392469 5.88989258 9.51275635 C4.36251968 9.51882904 4.36251968 9.51882904 2.80429077 9.52502441 C1.87887482 9.51938477 0.95345886 9.51374512 0 9.50793457 C-0.8067366 9.50718052 -1.61347321 9.50642647 -2.44465637 9.50564957 C-4.40307617 9.25396729 -4.40307617 9.25396729 -6.40307617 7.25396729 C-6.65307617 4.75396729 -6.65307617 4.75396729 -6.40307617 2.25396729 C-3.96168544 -0.18742345 -3.34698955 0.00312841 0 0 Z " fill="#EDEDED" transform="translate(79.403076171875,157.74603271484375)"/>
<path d="M0 0 C0.94231476 -0.00281982 1.88462952 -0.00563965 2.85549927 -0.00854492 C4.41867386 -0.00550858 4.41867386 -0.00550858 6.01342773 -0.00241089 C7.10436737 -0.00416321 8.19530701 -0.00591553 9.31930542 -0.00772095 C12.9452267 -0.01214199 16.57109966 -0.00920058 20.19702148 -0.00582886 C22.70426442 -0.00650182 25.21150729 -0.00747179 27.71875 -0.00872803 C32.981369 -0.01020534 38.2439753 -0.00814396 43.5065918 -0.00338745 C49.5988035 0.00205513 55.69098174 0.00029246 61.78319263 -0.00521386 C67.63353167 -0.01029079 73.48385793 -0.0097634 79.334198 -0.00683212 C81.82860316 -0.0061626 84.32300916 -0.00699214 86.81741333 -0.00931168 C90.29683735 -0.01183672 93.77619611 -0.0079997 97.25561523 -0.00241089 C98.29773163 -0.00443512 99.33984802 -0.00645935 100.4135437 -0.00854492 C101.82701584 -0.00431519 101.82701584 -0.00431519 103.26904297 0 C104.09274887 0.00037703 104.91645477 0.00075405 105.76512146 0.0011425 C107.63452148 0.12698364 107.63452148 0.12698364 108.63452148 1.12698364 C108.34722093 3.466431 108.01515369 5.80089794 107.63452148 8.12698364 C93.04880953 8.15031367 78.46310046 8.16789691 63.8773737 8.17879581 C57.10541728 8.18395855 50.33347243 8.19100082 43.56152344 8.2024231 C37.03227723 8.21343078 30.50303855 8.21925989 23.97378349 8.22186089 C21.47658536 8.22371563 18.97938793 8.22733718 16.4821949 8.2327137 C12.9978808 8.23992048 9.51361717 8.24097474 6.02929688 8.24050903 C4.46376572 8.24590195 4.46376572 8.24590195 2.86660767 8.25140381 C1.92284775 8.25002914 0.97908783 8.24865448 0.00672913 8.24723816 C-1.23077796 8.24862085 -1.23077796 8.24862085 -2.49328518 8.25003147 C-4.36547852 8.12698364 -4.36547852 8.12698364 -5.36547852 7.12698364 C-5.49047852 4.12698364 -5.49047852 4.12698364 -5.36547852 1.12698364 C-3.78499322 -0.45350165 -2.19377279 0.00100413 0 0 Z " fill="#FBFBFB" transform="translate(78.365478515625,117.87301635742188)"/>
</svg>
