<?xml version="1.0" encoding="UTF-8"?>
<svg version="1.1" xmlns="http://www.w3.org/2000/svg" width="260" height="260">
<path d="M0 0 C3.04719699 1.94995528 5.44301611 4.4560398 8 7 C9.04349377 7.95565988 10.09205471 8.90580451 11.14453125 9.8515625 C16.37998187 14.56573448 21.40228919 19.26610816 25.93359375 24.671875 C32.44822866 32.0116149 39.52032246 39.21485205 47.0625 45.5 C51.66776928 49.3828741 55.63310861 53.88574411 59.71362305 58.30273438 C65.82368602 64.91424106 71.98155555 71.42392261 78.82421875 77.2890625 C82.98348646 80.90488879 86.71713327 84.81530688 90.4375 88.875 C91.74897178 90.28871497 93.06146651 91.70148168 94.375 93.11328125 C94.99890625 93.78439941 95.6228125 94.45551758 96.265625 95.14697266 C100.98050422 100.18440696 105.80837127 105.02689041 111.0625 109.5 C123.5679368 120.22253316 123.5679368 120.22253316 124.2734375 126.390625 C124.58152005 135.06433361 124.58152005 135.06433361 121.8125 138.5625 C117.73701454 142.0945874 115.0439632 143.22787965 109.6875 143.0625 C99.19601828 141.38888039 90.08011233 128.14926687 82.84521484 120.82470703 C77.29531205 115.21224229 71.76352198 109.64676009 65.75244141 104.52099609 C62.84889646 102.00092295 60.14351202 99.29132132 57.4375 96.5625 C56.87377686 95.99756836 56.31005371 95.43263672 55.72924805 94.85058594 C52.80974267 91.90366934 49.99267014 88.91920592 47.3125 85.75 C44.9212238 82.94184272 42.39503119 80.49845707 39.625 78.0625 C34.65136908 73.67805305 29.94165735 69.05910478 25.25 64.375 C24.52893066 63.65836182 23.80786133 62.94172363 23.06494141 62.20336914 C19.29494432 58.42334779 15.72115185 54.56488639 12.28710938 50.47851562 C10.70134736 48.65693468 8.98558814 47.09968119 7.125 45.5625 C2.84996938 41.93119986 -1.08285227 38.01090925 -5 34 C-9.12554012 35.61476988 -11.80707207 38.62287758 -14.8125 41.75 C-21.24386531 48.33020798 -21.24386531 48.33020798 -24.8125 51.25 C-27.1822049 53.19874012 -29.15970425 55.26429879 -31.140625 57.60546875 C-35.20369829 62.30017157 -39.53767946 66.68495704 -43.9375 71.0625 C-44.69740234 71.82626953 -45.45730469 72.59003906 -46.24023438 73.37695312 C-50.45193434 77.58145975 -54.76554591 81.58176493 -59.27368164 85.46508789 C-61.44702364 87.39745971 -63.35647747 89.48223901 -65.25 91.6875 C-68.74217267 95.64408942 -72.33677331 99.45294737 -76.0625 103.1875 C-76.53268555 103.6621167 -77.00287109 104.1367334 -77.48730469 104.62573242 C-80.09545888 107.22359362 -82.7739914 109.67739588 -85.578125 112.0625 C-89.24973733 115.24293549 -92.66955464 118.62232676 -96.07421875 122.08203125 C-96.87872215 122.8983326 -96.87872215 122.8983326 -97.69947815 123.73112488 C-99.9317875 125.99997486 -102.16105518 128.27163619 -104.38110352 130.55249023 C-106.02204711 132.23579612 -107.67232943 133.90947503 -109.32421875 135.58203125 C-109.82016037 136.09659378 -110.31610199 136.61115631 -110.82707214 137.14131165 C-114.27723353 140.61659921 -117.28499222 142.81585165 -122.24609375 143.15234375 C-128.06090694 142.58226403 -130.9064689 141.19586938 -135 137 C-137.02595252 132.94809496 -136.697844 128.38478645 -136 124 C-134.16463149 120.49713206 -131.74331899 117.82660762 -129 115 C-128.02740234 113.96552734 -128.02740234 113.96552734 -127.03515625 112.91015625 C-123.91152476 109.68755822 -120.65644611 106.66981095 -117.25 103.75 C-113.66580387 100.66066329 -110.28799593 97.40047071 -106.9375 94.0625 C-106.45506836 93.58458008 -105.97263672 93.10666016 -105.47558594 92.61425781 C-102.73516261 89.86274714 -100.14450127 87.0309805 -97.6171875 84.08203125 C-94.05527831 79.97311283 -90.19406851 76.29473525 -86.1875 72.625 C-84.77494631 71.31498218 -83.36348693 70.00378342 -81.953125 68.69140625 C-81.27572266 68.06121582 -80.59832031 67.43102539 -79.90039062 66.78173828 C-74.62570231 61.83637917 -69.45950378 56.79604723 -64.8125 51.25 C-60.82159623 46.57979346 -56.27477613 42.51906775 -51.76879883 38.35791016 C-44.76630911 31.88513707 -37.77433449 25.36670951 -31.625 18.0625 C-28.4523446 14.35978838 -24.99151125 11.01832454 -21.4375 7.6875 C-20.89496582 7.17131104 -20.35243164 6.65512207 -19.79345703 6.12329102 C-13.75269429 0.54515873 -8.20945805 -2.69416922 0 0 Z " fill="#F9F9F9" transform="translate(136,59)"/>
<path d="M0 0 C0.99 0.495 0.99 0.495 2 1 C-38.26 41.26 -78.52 81.52 -120 123 C-120 117.46581847 -114.75296046 113.75885578 -111 110 C-107.25064728 106.387424 -103.42039576 102.8622773 -99.59375 99.33203125 C-94.0322085 94.19573288 -88.6668938 88.95236231 -83.73828125 83.203125 C-80.13086037 79.05771326 -76.23639364 75.3335021 -72.1875 71.625 C-70.77494631 70.31498218 -69.36348693 69.00378342 -67.953125 67.69140625 C-67.27572266 67.06121582 -66.59832031 66.43102539 -65.90039062 65.78173828 C-60.62570231 60.83637917 -55.45950378 55.79604723 -50.8125 50.25 C-46.82159623 45.57979346 -42.27477613 41.51906775 -37.76879883 37.35791016 C-30.76630911 30.88513707 -23.77433449 24.36670951 -17.625 17.0625 C-12.62850494 11.18427051 -6.70724602 6.1696069 -1 1 C-0.67 0.67 -0.34 0.34 0 0 Z " fill="#C6C6C6" transform="translate(122,60)"/>
</svg>
