<?xml version="1.0" encoding="UTF-8"?>
<svg version="1.1" xmlns="http://www.w3.org/2000/svg" width="512" height="512">
<path d="M0 0 C3.40949655 0.02283532 6.81774683 0.00918528 10.22720146 -0.01375961 C26.69062417 -0.10769802 42.38261907 0.86520285 58.4609375 4.52148438 C59.70858887 4.80378906 60.95624023 5.08609375 62.24169922 5.37695312 C65.21496388 6.10743587 68.14864821 6.90869752 71.0859375 7.77148438 C72.11895996 8.06958008 73.15198242 8.36767578 74.21630859 8.67480469 C103.00540177 17.18298229 130.19309582 30.10111147 154.3984375 47.89648438 C155.06738037 48.38431396 155.73632324 48.87214355 156.42553711 49.37475586 C159.96979562 52.05890529 162.57626722 54.38061384 164.4609375 58.52148438 C165.09548122 63.51851617 164.97230975 65.53400693 162.6484375 70.02148438 C160.10262649 72.63921095 157.86902687 73.04739665 154.2734375 73.27148438 C146.52584787 72.79629888 141.55693438 68.82206703 135.49609375 64.31835938 C107.39579312 43.5160043 73.85396339 31.05060843 39.4609375 25.52148438 C38.76307129 25.40434082 38.06520508 25.28719727 37.34619141 25.16650391 C-22.53991063 15.58187925 -85.86286352 31.98089788 -134.984375 66.92773438 C-142.43565326 72.32389565 -149.38492956 78.16534001 -156.16796875 84.37695312 C-158.26985118 86.27799671 -160.42112177 88.08736623 -162.6015625 89.89648438 C-167.5621939 94.23082363 -171.49642163 99.34501434 -175.5390625 104.52148438 C-176.32152344 105.49988281 -177.10398437 106.47828125 -177.91015625 107.48632812 C-218.27381945 158.69974399 -236.37172802 220.55128075 -229.77001953 285.39135742 C-226.37243383 312.88197368 -217.86669652 340.22751157 -204.5390625 364.52148438 C-203.8226204 365.86637868 -203.10648169 367.21143463 -202.390625 368.55664062 C-197.43641798 377.73401638 -191.80245846 386.19307166 -185.5390625 394.52148438 C-185.14106445 395.05837891 -184.74306641 395.59527344 -184.33300781 396.1484375 C-179.40899935 402.78637193 -174.22923937 409.18309556 -168.8515625 415.45898438 C-168.32908936 416.07378662 -167.80661621 416.68858887 -167.26831055 417.32202148 C-163.66894062 421.46783041 -159.79810769 425.05976929 -155.5390625 428.52148438 C-155.30832031 427.84794922 -155.07757813 427.17441406 -154.83984375 426.48046875 C-150.19202929 413.00548097 -145.33250473 400.05873828 -138.5390625 387.52148438 C-137.82363281 386.07515625 -137.82363281 386.07515625 -137.09375 384.59960938 C-124.67047953 360.03702891 -101.98616542 340.14412418 -78.5390625 326.52148438 C-77.92836914 326.15925781 -77.31767578 325.79703125 -76.68847656 325.42382812 C-66.17631147 319.23415569 -55.1429223 315.1982676 -43.5390625 311.52148438 C-42.85859863 311.30476074 -42.17813477 311.08803711 -41.47705078 310.86474609 C-2.58620142 298.65958603 39.67128162 304.40974714 75.9609375 322.02148438 C82.03079928 325.19356741 87.82999792 328.62314159 93.4609375 332.52148438 C94.88019531 333.49214844 94.88019531 333.49214844 96.328125 334.48242188 C129.05354802 358.21459888 147.89470573 390.91798778 160.4609375 428.52148438 C172.63364593 418.512813 182.28559605 407.26871465 191.4609375 394.52148438 C192.22905762 393.45583252 192.22905762 393.45583252 193.01269531 392.36865234 C229.71461948 340.83254211 242.76537626 277.35911802 232.4609375 215.16992188 C227.7515625 189.05648769 218.94341523 163.99642775 205.6472168 140.99926758 C202.85665525 136.00065393 201.19335162 131.32674946 201.4609375 125.52148438 C203.20843277 121.67699477 204.47301796 120.03789686 208.2109375 118.08398438 C212.32251608 117.372365 215.50961425 117.03345185 219.4609375 118.52148438 C224.62964124 123.6548264 227.96107001 130.68351 231.2734375 137.08398438 C231.79043213 138.08051025 232.30742676 139.07703613 232.84008789 140.10375977 C238.17980893 150.61260109 242.49998722 161.42910517 246.4609375 172.52148438 C246.71423828 173.21693359 246.96753906 173.91238281 247.22851562 174.62890625 C253.40175808 191.81197712 258.40685644 211.80601599 258.66967773 230.09814453 C258.68896835 231.36542389 258.70825897 232.63270325 258.72813416 233.93838501 C258.79138662 239.79523841 258.83557098 245.65216767 258.8659668 251.50927734 C258.88351837 254.5618082 258.91790707 257.61336887 258.96850586 260.66552734 C259.79518085 311.77771232 243.78574908 362.99020971 213.4609375 404.52148438 C213.06197266 405.0691748 212.66300781 405.61686523 212.25195312 406.18115234 C206.1831193 414.43173682 199.591259 422.23334322 192.84667969 429.93603516 C191.60879401 431.35231944 190.38176706 432.77807775 189.15625 434.20507812 C151.39069806 477.43487659 90.71632048 507.98107358 33.4609375 512.52148438 C29.02500522 512.69121195 24.59121222 512.73258332 20.15234375 512.75976562 C18.87278305 512.76783737 17.59322235 512.77590912 16.27488708 512.78422546 C13.56599064 512.79917719 10.8571195 512.80904343 8.14819336 512.81665039 C5.42855686 512.82540372 2.70944924 512.84603342 -0.01000977 512.87817383 C-22.58068773 513.12478015 -44.75484284 511.80592231 -66.4765625 505.20898438 C-67.50120605 504.90831055 -68.52584961 504.60763672 -69.58154297 504.29785156 C-108.65149784 492.62009351 -142.91130652 472.82072577 -172.75 445.08789062 C-175.07717095 442.94650223 -177.43964865 440.87805808 -179.8515625 438.83398438 C-183.11358867 436.00152544 -185.92969662 432.94875588 -188.71484375 429.65039062 C-189.94826222 428.21096221 -191.21819817 426.80216317 -192.51953125 425.42382812 C-215.76710451 400.73651445 -232.65507588 368.76096916 -242.5390625 336.52148438 C-242.83651367 335.56838379 -243.13396484 334.6152832 -243.44042969 333.63330078 C-244.39443097 330.54052233 -245.31599089 327.43981003 -246.2265625 324.33398438 C-246.63708862 322.97563477 -246.63708862 322.97563477 -247.0559082 321.58984375 C-252.85697889 301.03086328 -254.20407483 280.23917429 -254.06054688 258.98242188 C-254.03771156 255.57292532 -254.05136159 252.16467505 -254.07430649 248.75522041 C-254.1682449 232.29179771 -253.19534402 216.59980281 -249.5390625 200.52148438 C-249.25675781 199.27383301 -248.97445312 198.02618164 -248.68359375 196.74072266 C-247.95311818 193.76748721 -247.15154642 190.83382872 -246.2890625 187.89648438 C-245.99314209 186.8678125 -245.69722168 185.83914062 -245.39233398 184.77929688 C-233.96451316 146.02433782 -213.98679607 110.81591123 -186.2578125 81.42773438 C-184.03131594 79.04768633 -181.89333132 76.63334753 -179.7890625 74.14648438 C-177.01873201 70.95097126 -174.03487313 68.20712044 -170.8046875 65.48242188 C-169.15166657 64.05170376 -167.54233112 62.57005896 -165.9609375 61.06054688 C-122.41025872 19.53271383 -59.14367963 -0.3995972 0 0 Z M-91.5390625 363.52148438 C-92.45300781 364.28203125 -93.36695313 365.04257812 -94.30859375 365.82617188 C-112.96080389 381.92838708 -128.1138292 406.39651077 -133.5390625 430.52148438 C-133.69052734 431.18341797 -133.84199219 431.84535156 -133.99804688 432.52734375 C-134.46149184 434.66466588 -134.85430798 436.80404704 -135.2265625 438.95898438 C-135.45730469 440.25707031 -135.68804687 441.55515625 -135.92578125 442.89257812 C-135.50981821 446.79590807 -135.33267864 447.2092652 -132.58203125 449.66210938 C-131.25912118 450.64929405 -129.90988655 451.60199209 -128.5390625 452.52148438 C-127.88156006 452.96758057 -127.22405762 453.41367676 -126.54663086 453.87329102 C-124.44572331 455.24283323 -122.31617535 456.54649437 -120.1640625 457.83398438 C-119.37878174 458.30618408 -118.59350098 458.77838379 -117.78442383 459.26489258 C-90.32016785 475.62897737 -60.45654977 486.74149022 -28.5390625 490.52148438 C-27.7670752 490.61357178 -26.99508789 490.70565918 -26.19970703 490.80053711 C14.07640233 495.03192372 54.96301631 489.77953818 92.4609375 474.52148438 C93.20649902 474.22016602 93.95206055 473.91884766 94.72021484 473.60839844 C111.03051737 466.92587692 126.56908097 458.41644602 140.4609375 447.52148438 C138.15272057 420.9233102 125.81884832 395.5393501 108.4609375 375.52148438 C107.75324219 374.69261719 107.04554688 373.86375 106.31640625 373.00976562 C84.49574563 348.05548999 51.71330353 330.4998709 18.4609375 327.52148438 C17.3795752 327.42311279 17.3795752 327.42311279 16.27636719 327.32275391 C-24.080683 323.87844569 -60.80459473 337.60132533 -91.5390625 363.52148438 Z " fill="#FFFFFF" transform="translate(253.5390625,-0.521484375)"/>
<path d="M0 0 C1.65020142 0.00845947 1.65020142 0.00845947 3.33374023 0.01708984 C29.96648985 0.41427075 50.63581297 11.92654623 69.5625 29.875 C86.64296881 47.67242676 92.2629499 71.02470333 91.9609375 94.9140625 C91.12107152 122.69616398 78.9369125 144.00165847 59.03125 162.82421875 C39.63221197 179.62720904 15.54970567 183.69846537 -9.3125 182.3125 C-35.46198184 179.67306219 -56.09487999 166.66125909 -73.125 147 C-88.48949172 127.38457296 -92.47753306 102.76195121 -90.02832031 78.49707031 C-86.60473463 53.63247617 -73.8061833 32.98431942 -54.578125 16.9609375 C-38.37215438 5.16969681 -19.98397316 -0.10781334 0 0 Z M-46.3125 40.3125 C-47.02019531 40.95058594 -47.72789062 41.58867187 -48.45703125 42.24609375 C-61.05776666 54.22040637 -68.02152113 69.5117329 -68.59643555 86.89697266 C-68.85104293 105.08507971 -64.52014063 123.23653236 -51.875 136.875 C-50.058124 138.73287218 -48.19662357 140.52054939 -46.3125 142.3125 C-45.57128906 143.07175781 -44.83007812 143.83101563 -44.06640625 144.61328125 C-32.00326306 156.36654553 -14.49094673 160.65311784 1.9375 160.75 C19.70006485 160.4942672 34.45465985 154.20772454 47.6875 142.3125 C48.29851562 141.79429687 48.90953125 141.27609375 49.5390625 140.7421875 C62.60577362 128.86878334 68.86282973 111.72353132 69.92578125 94.4375 C70.47854944 73.90327705 63.41288077 57.60930182 49.6875 42.3125 C49.10097656 41.64347656 48.51445312 40.97445312 47.91015625 40.28515625 C37.1895678 28.75737055 20.52876113 22.70887581 5.04296875 22.09375 C-14.99799072 21.58840397 -31.26820284 26.68599001 -46.3125 40.3125 Z " fill="#FFFFFF" transform="translate(255.3125,104.6875)"/>
<path d="M0 0 C2.87029869 1.79393668 4.49131638 2.98263276 6 6 C6.43808718 10.28819956 6.44926618 13.94422448 4.75 17.9375 C2.43633869 20.66431511 0.35897841 21.7909264 -3.18359375 22.3359375 C-7.28583452 22.40703353 -9.43361845 22.35398847 -13 20.125 C-16.3462231 16.56963796 -16.27933926 13.96862716 -16.21875 9.2578125 C-15.91889867 6.16291845 -15.00312491 4.36082578 -13 2 C-8.79791973 -0.53558362 -4.79185651 -0.71749723 0 0 Z " fill="#FFFFFF" transform="translate(445,81)"/>
</svg>
